<svg xmlns="http://www.w3.org/2000/svg" width="256" height="256" viewBox="0 0 256 256">
  <rect width="256" height="256" fill="none"/>
  <g stroke="#F95396" stroke-width="10" stroke-linecap="round" stroke-linejoin="round" fill="none">

    <rect x="62" y="42" width="92" height="174" rx="12" fill="white"/>
    <path d="M154 85 H198 C207 85 214 92 214 101 V216"/>
    <path d="M50 216 H222"/>
    <rect x="84" y="67" width="18" height="18" rx="4" fill="#FEC8DC"/>
    <rect x="116" y="67" width="18" height="18" rx="4" fill="#FEC8DC"/>
    <rect x="84" y="103" width="18" height="18" rx="4" fill="#FEC8DC"/>
    <rect x="116" y="103" width="18" height="18" rx="4" fill="#FEC8DC"/>
    <rect x="84" y="139" width="18" height="18" rx="4" fill="#FEC8DC"/>
    <rect x="116" y="139" width="18" height="18" rx="4" fill="#FEC8DC"/>
    <rect x="166" y="112" width="18" height="18" rx="4" fill="#FEC8DC"/>
    <rect x="166" y="148" width="18" height="18" rx="4" fill="#FEC8DC"/>
    <path d="M101 216 V182 H125 V216"/>

  </g>
</svg>