<svg xmlns="http://www.w3.org/2000/svg" width="256" height="256" viewBox="0 0 256 256">
  <rect width="256" height="256" fill="none"/>
  <g stroke="#F95396" stroke-width="10" stroke-linecap="round" stroke-linejoin="round" fill="none">

    <path d="M55 136 L75 88 H181 L201 136 Z" fill="#FEC8DC"/>
    <rect x="45" y="129" width="166" height="54" rx="18" fill="white"/>
    <circle cx="82" cy="181" r="14" fill="#FEC8DC"/>
    <circle cx="174" cy="181" r="14" fill="#FEC8DC"/>
    <path d="M89 108 H167"/>
    <path d="M67 151 H94"/>
    <path d="M162 151 H190"/>
    <path d="M184 64 C198 72 211 75 224 75 V108 C224 141 208 166 184 180 C160 166 144 141 144 108 V75 C157 75 170 72 184 64 Z" fill="white"/>
    <path d="M169 119 L181 131 L204 103"/>

  </g>
</svg>