<svg xmlns="http://www.w3.org/2000/svg" width="256" height="256" viewBox="0 0 256 256">
  <rect width="256" height="256" fill="none"/>
  <g stroke="#F95396" stroke-width="10" stroke-linecap="round" stroke-linejoin="round" fill="none">

    <path d="M101 57 C113 71 142 71 155 57"/>
    <path d="M103 57 L88 85 H168 L153 57" fill="#FEC8DC"/>
    <path d="M88 85 C59 110 53 144 64 178 C76 214 100 229 128 229 C156 229 180 214 192 178 C203 144 197 110 168 85 Z" fill="white"/>
    <path d="M96 112 H160"/>
    <path d="M109 140 H147"/>
    
    <circle cx="128" cy="173" r="28" fill="#F95396" stroke="#F95396"/>
    <text x="128" y="182" text-anchor="middle" font-family="Arial, Helvetica, sans-serif" font-size="35" font-weight="700" fill="white" stroke="none">m</text>
    <path d="M50 61 L61 72 L74 47"/>
    <path d="M192 44 L199 58 L214 63 L199 69 L192 84 L185 69 L170 63 L185 58 Z" fill="#FEC8DC"/>

  </g>
</svg>