<svg xmlns="http://www.w3.org/2000/svg" width="256" height="256" viewBox="0 0 256 256">
  <rect width="256" height="256" fill="none"/>
  <g stroke="#F95396" stroke-width="10" stroke-linecap="round" stroke-linejoin="round" fill="none">

    <rect x="53" y="92" width="150" height="112" rx="16" fill="white"/>
    <path d="M53 122 H203"/>
    <path d="M128 92 V204"/>
    <path d="M128 92 C105 88 93 73 101 60 C109 47 127 62 128 92 Z" fill="#FEC8DC"/>
    <path d="M128 92 C151 88 163 73 155 60 C147 47 129 62 128 92 Z" fill="#FEC8DC"/>
    <path d="M192 39 L202 60 L225 63 L208 80 L213 103 L192 91 L171 103 L176 80 L159 63 L182 60 Z" fill="#FEC8DC"/>
    <circle cx="75" cy="62" r="14" fill="#FF9DBE" stroke="#FF9DBE"/>

  </g>
</svg>