<svg xmlns="http://www.w3.org/2000/svg">
  <defs>
    <style>
      .line{fill:none;stroke:#f04f9b;stroke-width:12;stroke-linecap:round;stroke-linejoin:round}
      .fill{fill:#ffd8ea;stroke:#f04f9b;stroke-width:12;stroke-linecap:round;stroke-linejoin:round}
      .soft{fill:#fff1f7;stroke:#f04f9b;stroke-width:12;stroke-linecap:round;stroke-linejoin:round}
      .mark{fill:#f04f9b}
    </style>

    <symbol id="loan" viewBox="0 0 256 256">
      <circle fill="#ffd8ea" stroke="#f04f9b" stroke-width="12" stroke-linecap="round" stroke-linejoin="round" cx="128" cy="128" r="70"/>
      <path fill="none" stroke="#f04f9b" stroke-width="12" stroke-linecap="round" stroke-linejoin="round" d="M128 82v92M104 108c8-14 38-14 48 0 10 15-3 26-24 26s-34 12-24 27c9 14 40 14 50-1"/>
      <path fill="none" stroke="#f04f9b" stroke-width="12" stroke-linecap="round" stroke-linejoin="round" d="M44 88h28M36 128h30M44 168h28"/>
    </symbol>

    <symbol id="installment" viewBox="0 0 256 256">
      <rect fill="#fff1f7" stroke="#f04f9b" stroke-width="12" stroke-linecap="round" stroke-linejoin="round" x="42" y="68" width="172" height="120" rx="24"/>
      <path fill="none" stroke="#f04f9b" stroke-width="12" stroke-linecap="round" stroke-linejoin="round" d="M66 106h124M66 142h70"/>
      <circle fill="#ffd8ea" stroke="#f04f9b" stroke-width="12" stroke-linecap="round" stroke-linejoin="round" cx="172" cy="150" r="34"/>
      <path fill="none" stroke="#f04f9b" stroke-width="12" stroke-linecap="round" stroke-linejoin="round" d="M158 150h28M172 136v28"/>
    </symbol>

    <symbol id="credit-score" viewBox="0 0 256 256">
      <path fill="#ffd8ea" stroke="#f04f9b" stroke-width="12" stroke-linecap="round" stroke-linejoin="round" d="M48 180a80 80 0 1 1 160 0"/>
      <path fill="none" stroke="#f04f9b" stroke-width="12" stroke-linecap="round" stroke-linejoin="round" d="M68 180h120M128 180l44-54"/>
      <path fill="none" stroke="#f04f9b" stroke-width="12" stroke-linecap="round" stroke-linejoin="round" d="M86 132l14 14M128 104v22M170 132l-14 14"/>
      <circle fill="#f04f9b" cx="128" cy="180" r="10"/>
    </symbol>

    <symbol id="credit-simulator" viewBox="0 0 256 256">
      <rect fill="#fff1f7" stroke="#f04f9b" stroke-width="12" stroke-linecap="round" stroke-linejoin="round" x="42" y="54" width="172" height="148" rx="24"/>
      <path fill="none" stroke="#f04f9b" stroke-width="12" stroke-linecap="round" stroke-linejoin="round" d="M78 164l34-34 28 22 42-56"/>
      <path fill="none" stroke="#f04f9b" stroke-width="12" stroke-linecap="round" stroke-linejoin="round" d="M78 92h28M78 118h18"/>
      <path fill="none" stroke="#f04f9b" stroke-width="12" stroke-linecap="round" stroke-linejoin="round" d="M178 88h18v18"/>
    </symbol>

    <symbol id="car-insurance" viewBox="0 0 256 256">
      <path fill="#ffd8ea" stroke="#f04f9b" stroke-width="12" stroke-linecap="round" stroke-linejoin="round" d="M60 122l22-42h92l22 42v58H60z"/>
      <path fill="none" stroke="#f04f9b" stroke-width="12" stroke-linecap="round" stroke-linejoin="round" d="M76 180v18M180 180v18M84 138h16M156 138h16"/>
      <path fill="#fff1f7" stroke="#f04f9b" stroke-width="12" stroke-linecap="round" stroke-linejoin="round" d="M94 102h68"/>
      <path fill="none" stroke="#f04f9b" stroke-width="12" stroke-linecap="round" stroke-linejoin="round" d="M198 70l14 14 28-32"/>
    </symbol>

    <symbol id="social-insurance" viewBox="0 0 256 256">
      <path fill="#ffd8ea" stroke="#f04f9b" stroke-width="12" stroke-linecap="round" stroke-linejoin="round" d="M128 38l76 30v58c0 49-32 78-76 94-44-16-76-45-76-94V68z"/>
      <path fill="none" stroke="#f04f9b" stroke-width="12" stroke-linecap="round" stroke-linejoin="round" d="M128 86v72M92 122h72"/>
    </symbol>

    <symbol id="pension" viewBox="0 0 256 256">
      <circle fill="#ffd8ea" stroke="#f04f9b" stroke-width="12" stroke-linecap="round" stroke-linejoin="round" cx="128" cy="96" r="38"/>
      <path fill="#fff1f7" stroke="#f04f9b" stroke-width="12" stroke-linecap="round" stroke-linejoin="round" d="M72 214c8-42 35-66 56-66s48 24 56 66"/>
      <path fill="none" stroke="#f04f9b" stroke-width="12" stroke-linecap="round" stroke-linejoin="round" d="M72 214h112"/>
      <path fill="none" stroke="#f04f9b" stroke-width="12" stroke-linecap="round" stroke-linejoin="round" d="M184 58l18-18M202 40h18M54 56l-18-16M36 40H20"/>
    </symbol>

    <symbol id="lump-sum" viewBox="0 0 256 256">
      <rect fill="#fff1f7" stroke="#f04f9b" stroke-width="12" stroke-linecap="round" stroke-linejoin="round" x="44" y="66" width="168" height="124" rx="22"/>
      <circle fill="#ffd8ea" stroke="#f04f9b" stroke-width="12" stroke-linecap="round" stroke-linejoin="round" cx="94" cy="128" r="30"/>
      <path fill="none" stroke="#f04f9b" stroke-width="12" stroke-linecap="round" stroke-linejoin="round" d="M142 106h42M142 132h30M142 158h42"/>
      <path fill="none" stroke="#f04f9b" stroke-width="12" stroke-linecap="round" stroke-linejoin="round" d="M94 108v40M82 122h24"/>
    </symbol>

    <symbol id="savings" viewBox="0 0 256 256">
      <path fill="#ffd8ea" stroke="#f04f9b" stroke-width="12" stroke-linecap="round" stroke-linejoin="round" d="M58 116c0-34 32-60 72-60 46 0 74 28 74 68 0 48-34 76-76 76-38 0-70-25-70-84z"/>
      <path fill="none" stroke="#f04f9b" stroke-width="12" stroke-linecap="round" stroke-linejoin="round" d="M82 76l22-28h50l22 28M98 128h60M112 104h32M112 152h32"/>
      <circle fill="#f04f9b" cx="190" cy="78" r="10"/>
    </symbol>

    <symbol id="child-plan" viewBox="0 0 256 256">
      <circle fill="#ffd8ea" stroke="#f04f9b" stroke-width="12" stroke-linecap="round" stroke-linejoin="round" cx="128" cy="88" r="34"/>
      <path fill="#fff1f7" stroke="#f04f9b" stroke-width="12" stroke-linecap="round" stroke-linejoin="round" d="M66 214c10-48 34-76 62-76s52 28 62 76"/>
      <path fill="none" stroke="#f04f9b" stroke-width="12" stroke-linecap="round" stroke-linejoin="round" d="M92 72c11-22 60-22 72 0M88 214h80"/>
      <path fill="none" stroke="#f04f9b" stroke-width="12" stroke-linecap="round" stroke-linejoin="round" d="M70 122l-24 24M186 122l24 24"/>
    </symbol>

    <symbol id="bank-rate" viewBox="0 0 256 256">
      <path fill="#ffd8ea" stroke="#f04f9b" stroke-width="12" stroke-linecap="round" stroke-linejoin="round" d="M44 96l84-48 84 48z"/>
      <path fill="none" stroke="#f04f9b" stroke-width="12" stroke-linecap="round" stroke-linejoin="round" d="M64 108v70M104 108v70M152 108v70M192 108v70M50 190h156"/>
      <circle fill="#fff1f7" stroke="#f04f9b" stroke-width="12" stroke-linecap="round" stroke-linejoin="round" cx="180" cy="172" r="34"/>
      <path fill="none" stroke="#f04f9b" stroke-width="12" stroke-linecap="round" stroke-linejoin="round" d="M166 186l28-28"/>
      <circle fill="#f04f9b" cx="166" cy="162" r="5"/>
      <circle fill="#f04f9b" cx="194" cy="186" r="5"/>
    </symbol>

    <symbol id="mutual-fund" viewBox="0 0 256 256">
      <path fill="#ffd8ea" stroke="#f04f9b" stroke-width="12" stroke-linecap="round" stroke-linejoin="round" d="M52 190h152"/>
      <rect fill="#fff1f7" stroke="#f04f9b" stroke-width="12" stroke-linecap="round" stroke-linejoin="round" x="68" y="132" width="28" height="58" rx="8"/>
      <rect fill="#fff1f7" stroke="#f04f9b" stroke-width="12" stroke-linecap="round" stroke-linejoin="round" x="114" y="98" width="28" height="92" rx="8"/>
      <rect fill="#fff1f7" stroke="#f04f9b" stroke-width="12" stroke-linecap="round" stroke-linejoin="round" x="160" y="64" width="28" height="126" rx="8"/>
      <path fill="none" stroke="#f04f9b" stroke-width="12" stroke-linecap="round" stroke-linejoin="round" d="M58 94l50-30 34 22 54-46"/>
    </symbol>

    <symbol id="gold" viewBox="0 0 256 256">
      <path fill="#ffd8ea" stroke="#f04f9b" stroke-width="12" stroke-linecap="round" stroke-linejoin="round" d="M86 88h84l22 54H64z"/>
      <path fill="#ffd8ea" stroke="#f04f9b" stroke-width="12" stroke-linecap="round" stroke-linejoin="round" d="M56 142h78l-18 56H38z"/>
      <path fill="#ffd8ea" stroke="#f04f9b" stroke-width="12" stroke-linecap="round" stroke-linejoin="round" d="M140 142h78l18 56h-78z"/>
      <path fill="none" stroke="#f04f9b" stroke-width="12" stroke-linecap="round" stroke-linejoin="round" d="M112 58h32M128 42v32"/>
    </symbol>

    <symbol id="stock" viewBox="0 0 256 256">
      <rect fill="#fff1f7" stroke="#f04f9b" stroke-width="12" stroke-linecap="round" stroke-linejoin="round" x="42" y="50" width="172" height="156" rx="24"/>
      <path fill="none" stroke="#f04f9b" stroke-width="12" stroke-linecap="round" stroke-linejoin="round" d="M72 164l34-38 30 24 48-68"/>
      <path fill="none" stroke="#f04f9b" stroke-width="12" stroke-linecap="round" stroke-linejoin="round" d="M184 82h-34M184 82v34"/>
      <path fill="none" stroke="#f04f9b" stroke-width="12" stroke-linecap="round" stroke-linejoin="round" d="M78 82v22M112 76v34M146 70v40"/>
    </symbol>

    <symbol id="tax" viewBox="0 0 256 256">
      <path fill="#ffd8ea" stroke="#f04f9b" stroke-width="12" stroke-linecap="round" stroke-linejoin="round" d="M68 42h92l36 36v136H68z"/>
      <path fill="none" stroke="#f04f9b" stroke-width="12" stroke-linecap="round" stroke-linejoin="round" d="M160 42v42h36M92 118h80M92 152h58"/>
      <path fill="none" stroke="#f04f9b" stroke-width="12" stroke-linecap="round" stroke-linejoin="round" d="M102 190l52-52"/>
      <circle fill="#f04f9b" cx="104" cy="144" r="6"/>
      <circle fill="#f04f9b" cx="154" cy="184" r="6"/>
    </symbol>

    <symbol id="tax-filing" viewBox="0 0 256 256">
      <path fill="#ffd8ea" stroke="#f04f9b" stroke-width="12" stroke-linecap="round" stroke-linejoin="round" d="M70 42h92l34 36v136H70z"/>
      <path fill="none" stroke="#f04f9b" stroke-width="12" stroke-linecap="round" stroke-linejoin="round" d="M162 42v42h34M96 116h76M96 148h76"/>
      <path fill="none" stroke="#f04f9b" stroke-width="12" stroke-linecap="round" stroke-linejoin="round" d="M96 184l18 18 44-48"/>
    </symbol>

    <symbol id="business-tax" viewBox="0 0 256 256">
      <path fill="#ffd8ea" stroke="#f04f9b" stroke-width="12" stroke-linecap="round" stroke-linejoin="round" d="M54 112h148v96H54z"/>
      <path fill="#fff1f7" stroke="#f04f9b" stroke-width="12" stroke-linecap="round" stroke-linejoin="round" d="M78 78h100v34H78z"/>
      <path fill="none" stroke="#f04f9b" stroke-width="12" stroke-linecap="round" stroke-linejoin="round" d="M86 148h20M126 148h20M166 148h20M86 178h20M126 178h20M166 178h20"/>
      <path fill="none" stroke="#f04f9b" stroke-width="12" stroke-linecap="round" stroke-linejoin="round" d="M98 54h60"/>
    </symbol>

    <symbol id="exchange" viewBox="0 0 256 256">
      <circle fill="#ffd8ea" stroke="#f04f9b" stroke-width="12" stroke-linecap="round" stroke-linejoin="round" cx="86" cy="128" r="42"/>
      <circle fill="#fff1f7" stroke="#f04f9b" stroke-width="12" stroke-linecap="round" stroke-linejoin="round" cx="170" cy="128" r="42"/>
      <path fill="none" stroke="#f04f9b" stroke-width="12" stroke-linecap="round" stroke-linejoin="round" d="M86 102v52M72 116c8-13 27-13 34 0M170 104v50M154 104l16 30 16-30"/>
      <path fill="none" stroke="#f04f9b" stroke-width="12" stroke-linecap="round" stroke-linejoin="round" d="M70 64c44-32 96-24 126 14M186 192c-44 32-96 24-126-14"/>
      <path fill="none" stroke="#f04f9b" stroke-width="12" stroke-linecap="round" stroke-linejoin="round" d="M196 78h-32M60 178h32"/>
    </symbol>

    <symbol id="bank-compare" viewBox="0 0 256 256">
      <path fill="#ffd8ea" stroke="#f04f9b" stroke-width="12" stroke-linecap="round" stroke-linejoin="round" d="M48 92l58-34 58 34z"/>
      <path fill="none" stroke="#f04f9b" stroke-width="12" stroke-linecap="round" stroke-linejoin="round" d="M62 104v54M102 104v54M142 104v54M52 170h112"/>
      <path fill="#fff1f7" stroke="#f04f9b" stroke-width="12" stroke-linecap="round" stroke-linejoin="round" d="M154 138l54 54"/>
      <circle fill="#fff1f7" stroke="#f04f9b" stroke-width="12" stroke-linecap="round" stroke-linejoin="round" cx="174" cy="118" r="34"/>
    </symbol>

    <symbol id="travel-budget" viewBox="0 0 256 256">
      <path fill="#ffd8ea" stroke="#f04f9b" stroke-width="12" stroke-linecap="round" stroke-linejoin="round" d="M72 98l112-40-28 140-38-50-46 30z"/>
      <path fill="none" stroke="#f04f9b" stroke-width="12" stroke-linecap="round" stroke-linejoin="round" d="M118 148l36-46"/>
      <circle fill="#fff1f7" stroke="#f04f9b" stroke-width="12" stroke-linecap="round" stroke-linejoin="round" cx="78" cy="190" r="26"/>
      <path fill="none" stroke="#f04f9b" stroke-width="12" stroke-linecap="round" stroke-linejoin="round" d="M78 174v32M66 190h24"/>
    </symbol>

    <symbol id="net-worth" viewBox="0 0 256 256">
      <rect fill="#fff1f7" stroke="#f04f9b" stroke-width="12" stroke-linecap="round" stroke-linejoin="round" x="44" y="54" width="168" height="148" rx="24"/>
      <path fill="none" stroke="#f04f9b" stroke-width="12" stroke-linecap="round" stroke-linejoin="round" d="M78 158h100M78 116h100"/>
      <path fill="none" stroke="#f04f9b" stroke-width="12" stroke-linecap="round" stroke-linejoin="round" d="M92 96c8-18 46-18 58 0"/>
      <circle fill="#ffd8ea" stroke="#f04f9b" stroke-width="12" stroke-linecap="round" stroke-linejoin="round" cx="84" cy="186" r="24"/>
      <circle fill="#ffd8ea" stroke="#f04f9b" stroke-width="12" stroke-linecap="round" stroke-linejoin="round" cx="172" cy="186" r="24"/>
    </symbol>

    <symbol id="dti" viewBox="0 0 256 256">
      <circle fill="#ffd8ea" stroke="#f04f9b" stroke-width="12" stroke-linecap="round" stroke-linejoin="round" cx="106" cy="122" r="58"/>
      <path fill="none" stroke="#f04f9b" stroke-width="12" stroke-linecap="round" stroke-linejoin="round" d="M106 64v58h58"/>
      <path fill="none" stroke="#f04f9b" stroke-width="12" stroke-linecap="round" stroke-linejoin="round" d="M178 78h34M178 120h34M178 162h34"/>
      <circle fill="#f04f9b" cx="220" cy="78" r="7"/>
      <circle fill="#f04f9b" cx="220" cy="120" r="7"/>
      <circle fill="#f04f9b" cx="220" cy="162" r="7"/>
    </symbol>

    <symbol id="debt-payoff" viewBox="0 0 256 256">
      <rect fill="#fff1f7" stroke="#f04f9b" stroke-width="12" stroke-linecap="round" stroke-linejoin="round" x="46" y="58" width="164" height="140" rx="22"/>
      <path fill="none" stroke="#f04f9b" stroke-width="12" stroke-linecap="round" stroke-linejoin="round" d="M78 104h100M78 136h70"/>
      <path fill="none" stroke="#f04f9b" stroke-width="12" stroke-linecap="round" stroke-linejoin="round" d="M84 176l24 22 58-66"/>
      <path fill="none" stroke="#f04f9b" stroke-width="12" stroke-linecap="round" stroke-linejoin="round" d="M178 80l-24 24M154 80l24 24"/>
    </symbol>

    <symbol id="emergency-fund" viewBox="0 0 256 256">
      <path fill="#ffd8ea" stroke="#f04f9b" stroke-width="12" stroke-linecap="round" stroke-linejoin="round" d="M128 38l74 34v52c0 48-31 78-74 94-43-16-74-46-74-94V72z"/>
      <path fill="none" stroke="#f04f9b" stroke-width="12" stroke-linecap="round" stroke-linejoin="round" d="M94 136h68M128 102v68"/>
      <path fill="none" stroke="#f04f9b" stroke-width="12" stroke-linecap="round" stroke-linejoin="round" d="M94 186h68"/>
    </symbol>

    <symbol id="fire" viewBox="0 0 256 256">
      <path fill="#ffd8ea" stroke="#f04f9b" stroke-width="12" stroke-linecap="round" stroke-linejoin="round" d="M132 220c-44 0-76-30-76-74 0-38 28-62 44-86 8 28 26 40 44 52 8-20 8-38 4-58 34 28 52 58 52 94 0 42-28 72-68 72z"/>
      <path fill="none" stroke="#f04f9b" stroke-width="12" stroke-linecap="round" stroke-linejoin="round" d="M128 182c-16 0-28-11-28-28 0-18 16-29 24-44 8 18 32 28 32 48 0 14-11 24-28 24z"/>
    </symbol>

    <symbol id="wedding" viewBox="0 0 256 256">
      <circle fill="#ffd8ea" stroke="#f04f9b" stroke-width="12" stroke-linecap="round" stroke-linejoin="round" cx="104" cy="146" r="42"/>
      <circle fill="#fff1f7" stroke="#f04f9b" stroke-width="12" stroke-linecap="round" stroke-linejoin="round" cx="154" cy="146" r="42"/>
      <path fill="none" stroke="#f04f9b" stroke-width="12" stroke-linecap="round" stroke-linejoin="round" d="M84 80l20-28 20 28M136 80l20-28 20 28"/>
      <path fill="none" stroke="#f04f9b" stroke-width="12" stroke-linecap="round" stroke-linejoin="round" d="M62 202h132M198 98l20 20 28-38"/>
    </symbol>

    <symbol id="tuition" viewBox="0 0 256 256">
      <path fill="#ffd8ea" stroke="#f04f9b" stroke-width="12" stroke-linecap="round" stroke-linejoin="round" d="M42 92l86-44 86 44-86 44z"/>
      <path fill="none" stroke="#f04f9b" stroke-width="12" stroke-linecap="round" stroke-linejoin="round" d="M78 112v48c26 24 74 24 100 0v-48"/>
      <path fill="none" stroke="#f04f9b" stroke-width="12" stroke-linecap="round" stroke-linejoin="round" d="M214 92v70"/>
      <circle fill="#f04f9b" cx="214" cy="178" r="9"/>
    </symbol>

    <symbol id="calendar" viewBox="0 0 256 256">
      <rect fill="#fff1f7" stroke="#f04f9b" stroke-width="12" stroke-linecap="round" stroke-linejoin="round" x="48" y="60" width="160" height="148" rx="22"/>
      <path fill="none" stroke="#f04f9b" stroke-width="12" stroke-linecap="round" stroke-linejoin="round" d="M48 102h160M88 42v38M168 42v38"/>
      <path fill="none" stroke="#f04f9b" stroke-width="12" stroke-linecap="round" stroke-linejoin="round" d="M86 136h24M122 136h24M158 136h24M86 172h24M122 172h24"/>
    </symbol>

    <symbol id="fast-approval" viewBox="0 0 256 256">
      <path fill="#ffd8ea" stroke="#f04f9b" stroke-width="12" stroke-linecap="round" stroke-linejoin="round" d="M144 28L68 142h58l-14 86 78-118h-58z"/>
    </symbol>

    <symbol id="document-check" viewBox="0 0 256 256">
      <path fill="#ffd8ea" stroke="#f04f9b" stroke-width="12" stroke-linecap="round" stroke-linejoin="round" d="M70 42h92l34 36v136H70z"/>
      <path fill="none" stroke="#f04f9b" stroke-width="12" stroke-linecap="round" stroke-linejoin="round" d="M162 42v42h34M96 116h70M96 146h54"/>
      <path fill="none" stroke="#f04f9b" stroke-width="12" stroke-linecap="round" stroke-linejoin="round" d="M94 188l20 20 50-58"/>
    </symbol>

    <symbol id="online" viewBox="0 0 256 256">
      <circle fill="#ffd8ea" stroke="#f04f9b" stroke-width="12" stroke-linecap="round" stroke-linejoin="round" cx="128" cy="128" r="84"/>
      <path fill="none" stroke="#f04f9b" stroke-width="12" stroke-linecap="round" stroke-linejoin="round" d="M44 128h168M128 44c30 26 44 54 44 84s-14 58-44 84M128 44c-30 26-44 54-44 84s14 58 44 84"/>
      <path fill="none" stroke="#f04f9b" stroke-width="12" stroke-linecap="round" stroke-linejoin="round" d="M68 82c16 10 36 16 60 16s44-6 60-16M68 174c16-10 36-16 60-16s44 6 60 16"/>
    </symbol>

    <symbol id="lodging" viewBox="0 0 256 256">
      <path fill="#ffd8ea" stroke="#f04f9b" stroke-width="12" stroke-linecap="round" stroke-linejoin="round" d="M48 108h160v88H48z"/>
      <path fill="none" stroke="#f04f9b" stroke-width="12" stroke-linecap="round" stroke-linejoin="round" d="M48 90v106M208 90v106M74 108V74h54v34M128 108V82h54v26"/>
      <path fill="none" stroke="#f04f9b" stroke-width="12" stroke-linecap="round" stroke-linejoin="round" d="M48 148h160"/>
    </symbol>

    <symbol id="food" viewBox="0 0 256 256">
      <path fill="none" stroke="#f04f9b" stroke-width="12" stroke-linecap="round" stroke-linejoin="round" d="M78 42v80M56 42v80M100 42v80M56 122h44M78 122v92"/>
      <path fill="#ffd8ea" stroke="#f04f9b" stroke-width="12" stroke-linecap="round" stroke-linejoin="round" d="M160 46c28 18 42 42 42 76 0 31-14 52-42 64z"/>
      <path fill="none" stroke="#f04f9b" stroke-width="12" stroke-linecap="round" stroke-linejoin="round" d="M160 46v168"/>
    </symbol>

    <symbol id="transport" viewBox="0 0 256 256">
      <rect fill="#ffd8ea" stroke="#f04f9b" stroke-width="12" stroke-linecap="round" stroke-linejoin="round" x="54" y="50" width="148" height="136" rx="26"/>
      <path fill="none" stroke="#f04f9b" stroke-width="12" stroke-linecap="round" stroke-linejoin="round" d="M78 94h100M78 136h100M82 186l-20 28M174 186l20 28"/>
      <circle fill="#f04f9b" cx="88" cy="164" r="10"/>
      <circle fill="#f04f9b" cx="168" cy="164" r="10"/>
    </symbol>

    <symbol id="fuel-e10" viewBox="0 0 256 256">
      <path fill="#fff1f7" stroke="#f04f9b" stroke-width="12" stroke-linecap="round" stroke-linejoin="round" d="M72 54h78c16 0 28 12 28 28v118H72z"/>
      <path fill="none" stroke="#f04f9b" stroke-width="12" stroke-linecap="round" stroke-linejoin="round" d="M178 90h18l18 22v60c0 10-8 18-18 18s-18-8-18-18v-34"/>
      <path fill="none" stroke="#f04f9b" stroke-width="12" stroke-linecap="round" stroke-linejoin="round" d="M98 92h54M98 126h32"/>
      <path fill="#ffd8ea" stroke="#f04f9b" stroke-width="12" stroke-linecap="round" stroke-linejoin="round" d="M92 150h66v30H92z"/>
      <path fill="none" stroke="#f04f9b" stroke-width="12" stroke-linecap="round" stroke-linejoin="round" d="M110 152v28M110 152h30"/>
      <path fill="none" stroke="#f04f9b" stroke-width="12" stroke-linecap="round" stroke-linejoin="round" d="M54 196h142"/>
    </symbol>

    <symbol id="traffic-fine" viewBox="0 0 256 256">
      <path fill="#ffd8ea" stroke="#f04f9b" stroke-width="12" stroke-linecap="round" stroke-linejoin="round" d="M58 112l24-42h92l24 42v54H58z"/>
      <path fill="none" stroke="#f04f9b" stroke-width="12" stroke-linecap="round" stroke-linejoin="round" d="M74 166v20M182 166v20M88 128h16M154 128h16"/>
      <circle fill="#fff1f7" stroke="#f04f9b" stroke-width="12" stroke-linecap="round" stroke-linejoin="round" cx="182" cy="84" r="34"/>
      <path fill="none" stroke="#f04f9b" stroke-width="12" stroke-linecap="round" stroke-linejoin="round" d="M182 68v18M182 106h.1M158 84h12M194 84h12"/>
      <path fill="none" stroke="#f04f9b" stroke-width="12" stroke-linecap="round" stroke-linejoin="round" d="M62 196h132"/>
    </symbol>

    <symbol id="km-cost" viewBox="0 0 256 256">
      <path fill="#ffd8ea" stroke="#f04f9b" stroke-width="12" stroke-linecap="round" stroke-linejoin="round" d="M56 116l20-36h80l20 36v50H56z"/>
      <path fill="none" stroke="#f04f9b" stroke-width="12" stroke-linecap="round" stroke-linejoin="round" d="M72 162v18M160 162v18M84 130h14M134 130h14"/>
      <path fill="#fff1f7" stroke="#f04f9b" stroke-width="12" stroke-linecap="round" stroke-linejoin="round" d="M164 78l38 38-38 38"/>
      <path fill="none" stroke="#f04f9b" stroke-width="12" stroke-linecap="round" stroke-linejoin="round" d="M180 92v48M196 92v48"/>
      <path fill="none" stroke="#f04f9b" stroke-width="12" stroke-linecap="round" stroke-linejoin="round" d="M44 196h164"/>
    </symbol>

    <symbol id="ev-compare" viewBox="0 0 256 256">
      <path fill="#fff1f7" stroke="#f04f9b" stroke-width="12" stroke-linecap="round" stroke-linejoin="round" d="M42 90h74v88H42z"/>
      <path fill="none" stroke="#f04f9b" stroke-width="12" stroke-linecap="round" stroke-linejoin="round" d="M58 108h20M58 130h14M94 104h10v16h10"/>
      <path fill="#ffd8ea" stroke="#f04f9b" stroke-width="12" stroke-linecap="round" stroke-linejoin="round" d="M140 90h74v88h-74z"/>
      <path fill="none" stroke="#f04f9b" stroke-width="12" stroke-linecap="round" stroke-linejoin="round" d="M158 106h22v18h-22zM168 124v12M186 112v44"/>
      <path fill="none" stroke="#f04f9b" stroke-width="12" stroke-linecap="round" stroke-linejoin="round" d="M120 112h16M120 146h16"/>
    </symbol>

    <symbol id="activity" viewBox="0 0 256 256">
      <path fill="#ffd8ea" stroke="#f04f9b" stroke-width="12" stroke-linecap="round" stroke-linejoin="round" d="M52 88h152v46c-18 0-30 12-30 28s12 28 30 28v22H52v-22c18 0 30-12 30-28s-12-28-30-28z"/>
      <path fill="none" stroke="#f04f9b" stroke-width="12" stroke-linecap="round" stroke-linejoin="round" d="M122 92v112M144 116h30M144 148h30M144 180h30"/>
    </symbol>

    <symbol id="misc" viewBox="0 0 256 256">
      <path fill="#ffd8ea" stroke="#f04f9b" stroke-width="12" stroke-linecap="round" stroke-linejoin="round" d="M70 92h116l-12 104H82z"/>
      <path fill="none" stroke="#f04f9b" stroke-width="12" stroke-linecap="round" stroke-linejoin="round" d="M98 92c0-34 60-34 60 0M82 126h92"/>
      <circle fill="#f04f9b" cx="104" cy="148" r="7"/>
      <circle fill="#f04f9b" cx="152" cy="148" r="7"/>
    </symbol>

    <symbol id="tier-budget" viewBox="0 0 256 256">
      <path fill="#ffd8ea" stroke="#f04f9b" stroke-width="12" stroke-linecap="round" stroke-linejoin="round" d="M58 86h140v104H58z"/>
      <path fill="none" stroke="#f04f9b" stroke-width="12" stroke-linecap="round" stroke-linejoin="round" d="M58 116h140M86 158h42"/>
      <circle fill="#fff1f7" stroke="#f04f9b" stroke-width="12" stroke-linecap="round" stroke-linejoin="round" cx="176" cy="160" r="30"/>
      <path fill="none" stroke="#f04f9b" stroke-width="12" stroke-linecap="round" stroke-linejoin="round" d="M176 142v36M164 154h24"/>
    </symbol>

    <symbol id="tier-mid" viewBox="0 0 256 256">
      <path fill="none" stroke="#f04f9b" stroke-width="12" stroke-linecap="round" stroke-linejoin="round" d="M128 46v164M78 82h100M72 82l-34 70h68zM184 82l-34 70h68z"/>
      <path fill="#ffd8ea" stroke="#f04f9b" stroke-width="12" stroke-linecap="round" stroke-linejoin="round" d="M92 210h72"/>
    </symbol>

    <symbol id="tier-luxury" viewBox="0 0 256 256">
      <path fill="#ffd8ea" stroke="#f04f9b" stroke-width="12" stroke-linecap="round" stroke-linejoin="round" d="M128 38l24 58 62 6-47 40 14 60-53-32-53 32 14-60-47-40 62-6z"/>
    </symbol>

    <symbol id="card" viewBox="0 0 256 256">
      <rect fill="#fff1f7" stroke="#f04f9b" stroke-width="12" stroke-linecap="round" stroke-linejoin="round" x="42" y="70" width="172" height="116" rx="22"/>
      <path fill="none" stroke="#f04f9b" stroke-width="12" stroke-linecap="round" stroke-linejoin="round" d="M42 106h172M76 150h42M142 150h36"/>
    </symbol>

    <symbol id="cash" viewBox="0 0 256 256">
      <rect fill="#fff1f7" stroke="#f04f9b" stroke-width="12" stroke-linecap="round" stroke-linejoin="round" x="42" y="76" width="172" height="104" rx="22"/>
      <circle fill="#ffd8ea" stroke="#f04f9b" stroke-width="12" stroke-linecap="round" stroke-linejoin="round" cx="128" cy="128" r="32"/>
      <path fill="none" stroke="#f04f9b" stroke-width="12" stroke-linecap="round" stroke-linejoin="round" d="M70 104v48M186 104v48M128 108v40"/>
    </symbol>

    <symbol id="momo-wallet" viewBox="0 0 256 256">
      <rect x="46" y="70" width="164" height="116" rx="26" fill="#fff"/>
      <path d="M76 106h104M76 150h58" fill="none" stroke="#f04f9b" stroke-width="12" stroke-linecap="round"/>
      <circle cx="172" cy="146" r="24" fill="#ffd8ea" stroke="#f04f9b" stroke-width="12"/>
      <path d="M92 56h72" fill="none" stroke="#fff" stroke-width="12" stroke-linecap="round"/>
    </symbol>

    <symbol id="not-supported" viewBox="0 0 256 256">
      <circle fill="#fff1f7" stroke="#f04f9b" stroke-width="12" stroke-linecap="round" stroke-linejoin="round" cx="128" cy="128" r="82"/>
      <path fill="none" stroke="#f04f9b" stroke-width="12" stroke-linecap="round" stroke-linejoin="round" d="M72 72l112 112"/>
    </symbol>

    <symbol id="grid" viewBox="0 0 256 256">
      <rect fill="#fff1f7" stroke="#f04f9b" stroke-width="12" stroke-linecap="round" stroke-linejoin="round" x="48" y="48" width="62" height="62" rx="16"/>
      <rect fill="#fff1f7" stroke="#f04f9b" stroke-width="12" stroke-linecap="round" stroke-linejoin="round" x="146" y="48" width="62" height="62" rx="16"/>
      <rect fill="#fff1f7" stroke="#f04f9b" stroke-width="12" stroke-linecap="round" stroke-linejoin="round" x="48" y="146" width="62" height="62" rx="16"/>
      <rect fill="#fff1f7" stroke="#f04f9b" stroke-width="12" stroke-linecap="round" stroke-linejoin="round" x="146" y="146" width="62" height="62" rx="16"/>
    </symbol>
  </defs>
</svg>
